<svg xmlns="http://www.w3.org/2000/svg" viewBox="0 0 512 512"><path fill="none" d="M-1-1h582v402H-1z"/><g><path fill="#fff" d="M414.818 282.774a50.893 50.893 0 01-6.75-6.776l8.536-4.928a12.85 12.85 0 000-22.258l-6.474-3.737c8.197-11.64 12.744-24.394 12.744-37.768 0-69.38-74.868-125.826-166.898-125.826s-166.9 56.446-166.9 125.826c0 13.382 4.553 26.145 12.76 37.79l-6.432 3.715a12.849 12.849 0 000 22.255l8.497 4.906a50.83 50.83 0 01-6.758 6.788c-5.574 4.943-11.891 10.544-11.891 18.51 0 7.964 6.315 13.562 11.886 18.5a68.493 68.493 0 015.635 5.42c1.358 22.667 6.22 40.79 21.56 57.576 25.583 28.979 76.035 46.98 131.672 46.98 55.895 0 106.44-18.113 131.942-47.284 15.145-16.746 19.955-34.795 21.298-57.335a69.704 69.704 0 015.567-5.344c5.576-4.94 11.893-10.544 11.893-18.513-.001-7.961-6.316-13.56-11.887-18.497zM99.276 207.307c0-63.757 70.294-115.626 156.7-115.626 86.404 0 156.698 51.869 156.698 115.626 0 48.761-70.294 88.43-156.698 88.43-86.406 0-156.7-39.669-156.7-88.43zm1.227 54.927a2.648 2.648 0 010-4.587l7.772-4.488c27.981 31.35 83.672 52.779 147.701 52.779 64.043 0 119.743-21.44 147.717-52.8l7.81 4.51a2.648 2.648 0 010 4.586l-146.485 84.574a18.052 18.052 0 01-18.027 0l-146.488-84.574zm279.82 113.453c-.077.084-.154.17-.234.254l-.015.017c-.075.085-.147.17-.216.257-23.76 26.742-71.122 43.332-123.855 43.332-52.8 0-100.324-16.684-124.083-43.606a68.403 68.403 0 01-9.103-12.532 62.92 62.92 0 0010.146.88c4.826.157 9.814.322 12.922 2.055 2.498 1.394 4.93 5.284 7.284 9.047 3.558 5.688 7.593 12.135 14.356 14.585 6.079 2.202 12.608.17 18.924-1.798 4.636-1.447 9.438-2.946 12.797-2.191 2.93.647 6.425 3.872 9.804 6.99 4.786 4.417 10.212 9.425 17.065 10.145 6.465.675 12.332-2.78 18.02-6.123 4.166-2.448 8.474-4.98 11.84-4.98 3.37 0 7.68 2.532 11.85 4.983 5.2 3.055 10.56 6.205 16.375 6.205a16.005 16.005 0 001.646-.084c6.853-.72 12.28-5.728 17.068-10.146 3.38-3.12 6.873-6.345 9.81-6.992 3.359-.745 8.155.747 12.79 2.191 6.315 1.97 12.847 4.002 18.918 1.798 6.76-2.45 10.792-8.895 14.35-14.583 2.352-3.76 4.785-7.65 7.277-9.04 3.108-1.735 8.096-1.897 12.92-2.054a62.044 62.044 0 0010.233-.897 68.173 68.173 0 01-8.889 12.287zm27.722-63.534c-3.788 3.357-7.703 6.826-10.044 11.15-2.29 4.233-2.744 9.477-3.185 14.547-.485 5.586-.986 11.363-3.917 13.998-2.146 1.927-7.284 2.094-12.252 2.256-5.76.187-12.286.398-17.558 3.337-4.782 2.67-7.92 7.687-10.955 12.54-2.814 4.498-5.722 9.15-9.176 10.402-2.847 1.024-7.708-.485-12.412-1.947-5.907-1.84-12.02-3.73-18.026-2.413-5.623 1.245-10.148 5.419-14.524 9.458-3.797 3.506-7.727 7.13-11.216 7.496-3.115.333-7.525-2.267-11.788-4.772-5.344-3.14-10.87-6.387-17.016-6.387-6.144 0-11.667 3.247-17.011 6.387-4.26 2.505-8.68 5.1-11.784 4.772-3.489-.366-7.416-3.99-11.213-7.493-4.373-4.04-8.898-8.213-14.518-9.458-6.03-1.32-12.125.575-18.032 2.413-4.707 1.464-9.57 2.968-12.419 1.947-3.456-1.253-6.367-5.907-9.181-10.407-3.038-4.853-6.179-9.871-10.962-12.54-5.27-2.942-11.8-3.156-17.56-3.345-4.97-.162-10.11-.331-12.256-2.259-2.933-2.637-3.434-8.414-3.917-14-.438-5.07-.89-10.314-3.18-14.547-2.338-4.324-6.253-7.792-10.04-11.15-4.157-3.682-8.453-7.492-8.453-10.867 0-3.379 4.301-7.191 8.457-10.877a124.307 124.307 0 003.367-3.096c7.452 48.627 71.292 86.74 148.702 86.74 77.4 0 141.236-38.104 148.702-86.722a139.13 139.13 0 003.374 3.09c4.156 3.684 8.452 7.491 8.452 10.865 0 3.38-4.3 7.194-8.46 10.882z"/><path fill="#fff" d="M218.125 181.03a5.1 5.1 0 007.211-7.212l-10.085-10.083a5.1 5.1 0 00-7.212 7.212l10.086 10.083zM218.125 129.537a5.1 5.1 0 007.211-7.212l-10.085-10.085a5.1 5.1 0 00-7.212 7.212l10.086 10.085zM296.759 181.03a5.1 5.1 0 107.211-7.212l-10.083-10.083a5.1 5.1 0 00-7.211 7.212l10.083 10.083zM296.759 129.537a5.1 5.1 0 107.211-7.212l-10.083-10.085a5.1 5.1 0 10-7.211 7.212l10.083 10.085zM250.933 156.778l.015-.003.015.003a5.083 5.083 0 003.606-1.494l10.083-10.083a5.11 5.11 0 00-7.24-7.212l-10.084 10.083a5.1 5.1 0 003.605 8.706zM172.24 156.778a5.083 5.083 0 003.605-1.494l10.083-10.083a5.1 5.1 0 00-7.212-7.212l-10.083 10.083a5.1 5.1 0 003.606 8.706zM329.597 156.778a5.083 5.083 0 003.606-1.494L343.29 145.2a5.1 5.1 0 10-7.212-7.212l-10.085 10.083a5.1 5.1 0 003.605 8.706z"/></g></svg>